<?xml version="1.0" encoding="UTF-8"?><svg id="Calque_1" xmlns="http://www.w3.org/2000/svg" viewBox="0 0 278.99 231.94"><defs><style>.cls-1{fill:#e09132;}</style></defs><path class="cls-1" d="M202.01,154.19c-3.23,6.09-8.28,11-15.15,14.73-6.88,3.73-15.55,5.59-26.01,5.59h-21.36v49.97h-25.56V94.34h46.91c9.86,0,18.25,1.74,25.19,5.22,6.94,3.48,12.14,8.27,15.61,14.36,3.47,6.09,5.2,12.99,5.2,20.7,0,6.96-1.61,13.49-4.84,19.58Zm-26.56-5.69c3.41-3.29,5.11-7.92,5.11-13.89,0-12.68-6.94-19.02-20.81-19.02h-20.26v37.85h20.26c7.06,0,12.29-1.65,15.7-4.94Z"/><g><path class="cls-1" d="M23.9,209.34c-1.07,1.41-1.66,2.96-1.77,4.64-.11,1.68,.27,3.37,1.15,5.07,.88,1.7,2.06,3.02,3.55,3.98,1.48,.96,3.15,1.45,5.01,1.47,1.86,.02,3.74-.46,5.64-1.45,1.91-.99,3.38-2.25,4.41-3.77s1.59-3.17,1.66-4.93c.07-1.76-.33-3.49-1.21-5.19-1.23-2.37-2.95-3.96-5.16-4.75-2.21-.8-4.59-.7-7.14,.3l5.03,9.69-2.58,1.34-6.78-13.07,2.44-1.27c2.1-.85,4.25-1.17,6.47-.97,2.22,.21,4.26,.93,6.13,2.17,1.87,1.24,3.36,2.93,4.47,5.07,1.17,2.25,1.71,4.59,1.62,6.99-.09,2.41-.8,4.64-2.12,6.7-1.32,2.06-3.17,3.7-5.54,4.93-2.37,1.23-4.78,1.8-7.24,1.7-2.45-.1-4.69-.8-6.71-2.11-2.02-1.31-3.62-3.09-4.79-5.35-1.34-2.58-1.88-5.19-1.64-7.84,.25-2.65,1.3-5.03,3.15-7.14l1.97,3.8Z"/><path class="cls-1" d="M33.89,176.78l-9.25,9.07,1.06,4.19,10.85-2.75,.88,3.46-26.53,6.72-2.17-8.57c-.51-2-.59-3.78-.26-5.34s1-2.83,1.99-3.81c.99-.98,2.24-1.66,3.74-2.04,1.83-.46,3.57-.34,5.24,.36s2.99,2.05,3.98,4.04l9.43-9.48,1.05,4.15Zm-10.97,13.96l-1.29-5.1c-.48-1.88-1.29-3.17-2.46-3.87-1.16-.7-2.52-.86-4.07-.47-1.57,.4-2.67,1.17-3.3,2.31-.63,1.15-.7,2.67-.22,4.57l1.29,5.1,10.05-2.54Z"/><path class="cls-1" d="M7.56,164.58l9.13-.54-.59-9.96,2.94-.17,.59,9.96,9.41-.56-.66-11.13,2.94-.17,.87,14.7-27.36,1.63-.87-14.7,2.94-.17,.66,11.13Z"/><path class="cls-1" d="M7.62,139.42l9.09,1.03,1.12-9.91,2.93,.33-1.12,9.91,9.37,1.06,1.25-11.08,2.93,.33-1.65,14.63-27.24-3.07,1.65-14.63,2.93,.33-1.25,11.08Z"/><path class="cls-1" d="M40.86,104.59l-1.11,3.4-25.18,6.88,20.71,6.78-1.11,3.4-26.05-8.52,1.11-3.4,25.15-6.89-20.68-6.77,1.11-3.4,26.05,8.53Z"/><path class="cls-1" d="M58.09,76.65l-12.88-1.36-2.55,3.48,9.03,6.62-2.11,2.88-22.08-16.18,5.22-7.13c1.22-1.67,2.54-2.87,3.95-3.6s2.82-1.03,4.2-.89,2.71,.67,3.95,1.58c1.52,1.11,2.54,2.54,3.06,4.26,.52,1.73,.33,3.61-.58,5.64l13.31,1.23-2.53,3.45Zm-17.75,.43l3.11-4.24c1.15-1.56,1.62-3.02,1.42-4.36-.2-1.35-.94-2.49-2.23-3.44-1.31-.96-2.6-1.32-3.89-1.07-1.28,.25-2.5,1.16-3.67,2.74l-3.11,4.24,8.36,6.13Z"/><path class="cls-1" d="M50.68,48.6l6.24,6.69,7.29-6.81,2.01,2.15-7.29,6.81,6.43,6.89,8.15-7.61,2.01,2.15-10.76,10.05-18.71-20.03,10.76-10.05,2.01,2.15-8.15,7.61Z"/><path class="cls-1" d="M83.25,52.37c-1.55,.23-2.97,.08-4.27-.45-1.3-.53-2.36-1.41-3.18-2.66l3.21-2.04c.8,1.01,1.83,1.64,3.08,1.88,1.26,.24,2.63-.12,4.14-1.07,1.44-.91,2.34-1.99,2.71-3.24,.37-1.24,.2-2.43-.52-3.56-.56-.88-1.26-1.45-2.1-1.69-.84-.24-1.71-.28-2.62-.1-.91,.18-2.09,.49-3.54,.95-1.78,.57-3.25,.95-4.42,1.14-1.17,.19-2.35,.06-3.54-.38-1.19-.44-2.25-1.37-3.16-2.81-.8-1.26-1.19-2.58-1.17-3.96,.02-1.38,.44-2.7,1.27-3.97,.82-1.27,1.98-2.38,3.49-3.34,2.16-1.38,4.28-1.96,6.35-1.76,2.07,.2,3.76,1.15,5.08,2.82l-3.31,2.11c-.67-.81-1.63-1.3-2.88-1.45-1.25-.15-2.54,.2-3.89,1.06-1.26,.8-2.08,1.78-2.46,2.94s-.2,2.32,.55,3.49c.53,.84,1.21,1.37,2.02,1.6s1.65,.26,2.53,.09c.87-.17,2.05-.47,3.53-.92,1.79-.55,3.28-.92,4.47-1.1,1.19-.18,2.38-.06,3.59,.37,1.2,.43,2.27,1.37,3.2,2.83,.72,1.13,1.09,2.38,1.13,3.75,.04,1.37-.33,2.74-1.11,4.1-.78,1.36-1.96,2.55-3.55,3.56-1.52,.97-3.06,1.57-4.61,1.79Z"/><path class="cls-1" d="M106.43,11.21l1.07,2.7-6.94,2.75,9,22.75-3.32,1.31-9-22.75-6.97,2.76-1.07-2.7,17.24-6.82Z"/><path class="cls-1" d="M136.27,26.41l-11.76,2.05-1.12,6.37-3.71,.65,5.08-28.51,4.06-.71,14.38,25.12-3.71,.65-3.21-5.62Zm-1.5-2.69l-7.25-12.77-2.5,14.47,9.75-1.7Z"/><path class="cls-1" d="M152.94,4.12l-.85,17.3c-.12,2.43,.39,4.27,1.52,5.5,1.13,1.23,2.76,1.91,4.87,2.01,2.09,.1,3.76-.4,5.01-1.52,1.25-1.12,1.93-2.89,2.05-5.33l.85-17.3,3.57,.18-.85,17.26c-.11,2.27-.66,4.17-1.65,5.68-.99,1.51-2.28,2.61-3.88,3.29-1.59,.68-3.36,.98-5.29,.88-1.94-.09-3.66-.56-5.18-1.39-1.52-.83-2.69-2.05-3.52-3.65-.83-1.6-1.18-3.54-1.07-5.81l.85-17.26,3.57,.18Z"/><path class="cls-1" d="M189.05,37.2l-3.39-12.5-4.17-1.12-2.91,10.81-3.45-.93,7.11-26.43,8.53,2.29c2,.54,3.59,1.33,4.79,2.39,1.19,1.05,1.98,2.25,2.35,3.6,.37,1.35,.35,2.77-.05,4.26-.49,1.82-1.45,3.29-2.87,4.39-1.42,1.11-3.25,1.61-5.47,1.5l3.66,12.86-4.13-1.11Zm-6.82-16.39l5.08,1.37c1.87,.5,3.4,.42,4.58-.25,1.18-.67,1.98-1.78,2.4-3.32,.42-1.57,.29-2.91-.41-4.01-.69-1.11-1.99-1.92-3.88-2.43l-5.08-1.37-2.69,10.01Z"/><path class="cls-1" d="M215.77,42.39l-10.6-5.48-4.75,4.4-3.35-1.73,21.29-19.63,3.66,1.89-3.74,28.7-3.35-1.73,.84-6.42Zm.43-3.05l1.95-14.55-10.74,10.01,8.79,4.54Z"/><path class="cls-1" d="M238.64,67.3l-2.72-2.31,3.17-25.92-14.12,16.61-2.72-2.31,17.75-20.88,2.72,2.31-3.14,25.89,14.09-16.58,2.72,2.31-17.75,20.88Z"/><path class="cls-1" d="M275.03,68.93l-2.3,1.78-4.58-5.89-19.33,15-2.19-2.82,19.33-15-4.6-5.93,2.3-1.78,11.37,14.64Z"/></g></svg>